<mxfile host="app.diagrams.net" agent="Mozilla/5.0 (Windows NT 10.0; Win64; x64) AppleWebKit/537.36 (KHTML, like Gecko) Chrome/127.0.0.0 Safari/537.36" version="24.7.6">
  <diagram name="Page-1" id="KIkXgeyIlk5ovONldOnj">
    <mxGraphModel dx="1050" dy="522" grid="1" gridSize="10" guides="1" tooltips="1" connect="1" arrows="1" fold="1" page="1" pageScale="1" pageWidth="827" pageHeight="1169" math="0" shadow="0">
      <root>
        <mxCell id="0" />
        <mxCell id="1" parent="0" />
        <mxCell id="P-1ulwH-GIdXCo0UlEnl-1" value="Define Research Question" style="whiteSpace=wrap;strokeWidth=2;fillColor=#6a00ff;strokeColor=#3700CC;fontColor=#ffffff;" vertex="1" parent="1">
          <mxGeometry x="164" y="20" width="198" height="33" as="geometry" />
        </mxCell>
        <mxCell id="P-1ulwH-GIdXCo0UlEnl-2" value="Develop Protocol" style="whiteSpace=wrap;strokeWidth=2;fillColor=#0050ef;fontColor=#ffffff;strokeColor=#001DBC;" vertex="1" parent="1">
          <mxGeometry x="195" y="103" width="136" height="33" as="geometry" />
        </mxCell>
        <mxCell id="P-1ulwH-GIdXCo0UlEnl-3" value="Conduct Literature Search" style="whiteSpace=wrap;strokeWidth=2;fillColor=#60a917;fontColor=#ffffff;strokeColor=#2D7600;" vertex="1" parent="1">
          <mxGeometry x="20" y="187" width="204" height="33" as="geometry" />
        </mxCell>
        <mxCell id="P-1ulwH-GIdXCo0UlEnl-4" value="Screening and Selection of Studies" style="whiteSpace=wrap;strokeWidth=2;fillColor=#60a917;fontColor=#ffffff;strokeColor=#2D7600;" vertex="1" parent="1">
          <mxGeometry x="274" y="187" width="262" height="33" as="geometry" />
        </mxCell>
        <mxCell id="P-1ulwH-GIdXCo0UlEnl-5" value="Data Extraction" style="whiteSpace=wrap;strokeWidth=2;fillColor=#a20025;fontColor=#ffffff;strokeColor=#6F0000;" vertex="1" parent="1">
          <mxGeometry x="200" y="270" width="127" height="33" as="geometry" />
        </mxCell>
        <mxCell id="P-1ulwH-GIdXCo0UlEnl-6" value="Assess Quality and Risk of Bias" style="whiteSpace=wrap;strokeWidth=2;fillColor=#0050ef;fontColor=#ffffff;strokeColor=#001DBC;" vertex="1" parent="1">
          <mxGeometry x="147" y="354" width="233" height="33" as="geometry" />
        </mxCell>
        <mxCell id="P-1ulwH-GIdXCo0UlEnl-7" value="Data Synthesis" style="whiteSpace=wrap;strokeWidth=2;fillColor=#0050ef;fontColor=#ffffff;strokeColor=#001DBC;" vertex="1" parent="1">
          <mxGeometry x="204" y="437" width="118" height="33" as="geometry" />
        </mxCell>
        <mxCell id="P-1ulwH-GIdXCo0UlEnl-8" value="Report Writing" style="whiteSpace=wrap;strokeWidth=2;fillColor=#0050ef;fontColor=#ffffff;strokeColor=#001DBC;" vertex="1" parent="1">
          <mxGeometry x="204" y="520" width="119" height="33" as="geometry" />
        </mxCell>
        <mxCell id="P-1ulwH-GIdXCo0UlEnl-9" value="Critical Appraisal" style="whiteSpace=wrap;strokeWidth=2;fillColor=#0050ef;fontColor=#ffffff;strokeColor=#001DBC;" vertex="1" parent="1">
          <mxGeometry x="194" y="604" width="137" height="33" as="geometry" />
        </mxCell>
        <mxCell id="P-1ulwH-GIdXCo0UlEnl-10" value="Submit for Peer Review" style="whiteSpace=wrap;strokeWidth=2;fillColor=#0050ef;fontColor=#ffffff;strokeColor=#001DBC;" vertex="1" parent="1">
          <mxGeometry x="172" y="687" width="183" height="33" as="geometry" />
        </mxCell>
        <mxCell id="P-1ulwH-GIdXCo0UlEnl-11" value="Update the Review" style="whiteSpace=wrap;strokeWidth=2;fillColor=#0050ef;fontColor=#ffffff;strokeColor=#001DBC;" vertex="1" parent="1">
          <mxGeometry x="187" y="771" width="151" height="33" as="geometry" />
        </mxCell>
        <mxCell id="P-1ulwH-GIdXCo0UlEnl-12" value="" style="curved=1;startArrow=none;endArrow=block;exitX=0.5;exitY=1.01;entryX=0.5;entryY=0.01;rounded=0;" edge="1" parent="1" source="P-1ulwH-GIdXCo0UlEnl-1" target="P-1ulwH-GIdXCo0UlEnl-2">
          <mxGeometry relative="1" as="geometry">
            <Array as="points" />
          </mxGeometry>
        </mxCell>
        <mxCell id="P-1ulwH-GIdXCo0UlEnl-13" value="" style="curved=1;startArrow=none;endArrow=block;exitX=0.08;exitY=1.02;entryX=0.5;entryY=-0.01;rounded=0;" edge="1" parent="1" source="P-1ulwH-GIdXCo0UlEnl-2" target="P-1ulwH-GIdXCo0UlEnl-3">
          <mxGeometry relative="1" as="geometry">
            <Array as="points">
              <mxPoint x="122" y="162" />
            </Array>
          </mxGeometry>
        </mxCell>
        <mxCell id="P-1ulwH-GIdXCo0UlEnl-14" value="" style="curved=1;startArrow=none;endArrow=block;exitX=0.92;exitY=1.02;entryX=0.5;entryY=-0.01;rounded=0;" edge="1" parent="1" source="P-1ulwH-GIdXCo0UlEnl-2" target="P-1ulwH-GIdXCo0UlEnl-4">
          <mxGeometry relative="1" as="geometry">
            <Array as="points">
              <mxPoint x="404" y="162" />
            </Array>
          </mxGeometry>
        </mxCell>
        <mxCell id="P-1ulwH-GIdXCo0UlEnl-15" value="" style="curved=1;startArrow=none;endArrow=block;exitX=0.5;exitY=1.01;entryX=0.05;entryY=0.01;rounded=0;" edge="1" parent="1" source="P-1ulwH-GIdXCo0UlEnl-3" target="P-1ulwH-GIdXCo0UlEnl-5">
          <mxGeometry relative="1" as="geometry">
            <Array as="points">
              <mxPoint x="122" y="245" />
            </Array>
          </mxGeometry>
        </mxCell>
        <mxCell id="P-1ulwH-GIdXCo0UlEnl-16" value="" style="curved=1;startArrow=none;endArrow=block;exitX=0.5;exitY=1.01;entryX=0.94;entryY=0.01;rounded=0;" edge="1" parent="1" source="P-1ulwH-GIdXCo0UlEnl-4" target="P-1ulwH-GIdXCo0UlEnl-5">
          <mxGeometry relative="1" as="geometry">
            <Array as="points">
              <mxPoint x="404" y="245" />
            </Array>
          </mxGeometry>
        </mxCell>
        <mxCell id="P-1ulwH-GIdXCo0UlEnl-17" value="" style="curved=1;startArrow=none;endArrow=block;exitX=0.5;exitY=1.02;entryX=0.5;entryY=-0.01;rounded=0;" edge="1" parent="1" source="P-1ulwH-GIdXCo0UlEnl-5" target="P-1ulwH-GIdXCo0UlEnl-6">
          <mxGeometry relative="1" as="geometry">
            <Array as="points" />
          </mxGeometry>
        </mxCell>
        <mxCell id="P-1ulwH-GIdXCo0UlEnl-18" value="" style="curved=1;startArrow=none;endArrow=block;exitX=0.5;exitY=1;entryX=0.5;entryY=0;rounded=0;" edge="1" parent="1" source="P-1ulwH-GIdXCo0UlEnl-6" target="P-1ulwH-GIdXCo0UlEnl-7">
          <mxGeometry relative="1" as="geometry">
            <Array as="points" />
          </mxGeometry>
        </mxCell>
        <mxCell id="P-1ulwH-GIdXCo0UlEnl-19" value="" style="curved=1;startArrow=none;endArrow=block;exitX=0.5;exitY=1.01;entryX=0.5;entryY=0.01;rounded=0;" edge="1" parent="1" source="P-1ulwH-GIdXCo0UlEnl-7" target="P-1ulwH-GIdXCo0UlEnl-8">
          <mxGeometry relative="1" as="geometry">
            <Array as="points" />
          </mxGeometry>
        </mxCell>
        <mxCell id="P-1ulwH-GIdXCo0UlEnl-20" value="" style="curved=1;startArrow=none;endArrow=block;exitX=0.5;exitY=1.02;entryX=0.5;entryY=-0.01;rounded=0;" edge="1" parent="1" source="P-1ulwH-GIdXCo0UlEnl-8" target="P-1ulwH-GIdXCo0UlEnl-9">
          <mxGeometry relative="1" as="geometry">
            <Array as="points" />
          </mxGeometry>
        </mxCell>
        <mxCell id="P-1ulwH-GIdXCo0UlEnl-21" value="" style="curved=1;startArrow=none;endArrow=block;exitX=0.5;exitY=1.01;entryX=0.5;entryY=0.01;rounded=0;" edge="1" parent="1" source="P-1ulwH-GIdXCo0UlEnl-9" target="P-1ulwH-GIdXCo0UlEnl-10">
          <mxGeometry relative="1" as="geometry">
            <Array as="points" />
          </mxGeometry>
        </mxCell>
        <mxCell id="P-1ulwH-GIdXCo0UlEnl-22" value="" style="curved=1;startArrow=none;endArrow=block;exitX=0.5;exitY=1.02;entryX=0.5;entryY=-0.01;rounded=0;" edge="1" parent="1" source="P-1ulwH-GIdXCo0UlEnl-10" target="P-1ulwH-GIdXCo0UlEnl-11">
          <mxGeometry relative="1" as="geometry">
            <Array as="points" />
          </mxGeometry>
        </mxCell>
      </root>
    </mxGraphModel>
  </diagram>
</mxfile>
